# xmcd
#
# Track frame offsets:
#	150
#	15365
#	27845
#	43692
#	57395
#	71367
#	84105
#	100117
#	108425
#	122775
#	132747
#	147995
#	159310
#	171375
#	180015
#	191792
#
# Disc length: 2743 seconds
#
# Revision: 1
# Processed by: cddbd v1.4PL0 Copyright (c) Steve Scherf et al.
# Submitted via: EasyCDDAExtractor 6.0.0.1
#
DISCID=d00ab510
DTITLE=Mario Zan - Homenagem A mato Grosso(dimas)
DYEAR=1996
DGENRE=
TTITLE0=Virginia-Mario Zan
TTITLE1=O Cantar Do Anahi-Mario Zan
TTITLE2=Cidades De Mato Grosso-Mario Zan
TTITLE3=Chalana-Mario Zan
TTITLE4=Paisagem Matogrossense-Mario Zan
TTITLE5=Paraguaia Linda-Mario Zan
TTITLE6=Mercedita-Mario Zan
TTITLE7=Ciriema-Mario Zan
TTITLE8=Festa Pantaneira-Mario Zan
TTITLE9=Che Si Mi Porã-Mario Zan
TTITLE10=Orgulhoso-Mario Zan
TTITLE11=Três Lagoas-Mario Zan
TTITLE12=Iracema-Mario Zan
TTITLE13=Bom Dia Fronteira-Mario Zan
TTITLE14=Linda Moreninha-Mario Zan
TTITLE15=Linda Matogrossense-Mario Zan
EXTD=
EXTT0=
EXTT1=
EXTT2=
EXTT3=
EXTT4=
EXTT5=
EXTT6=
EXTT7=
EXTT8=
EXTT9=
EXTT10=
EXTT11=
EXTT12=
EXTT13=
EXTT14=
EXTT15=
PLAYORDER=
